{
  "accessors": [
    {
      "bufferView": 2,
      "componentType": 5126,
      "count": 260,
      "max": [
        4.343393325805664,
        0.8904710412025452,
        11.784236907958984
      ],
      "min": [
        -0.837028980255127,
        -2.8097727298736572,
        -0.5690505504608154
      ],
      "type": "VEC3"
    },
    {
      "bufferView": 2,
      "byteOffset": 3120,
      "componentType": 5126,
      "count": 260,
      "max": [
        0.9992772340774536,
        0.9993671774864197,
        0.815598726272583
      ],
      "min": [
        -0.9999376535415649,
        -0.9993976354598999,
        -0.9940548539161682
      ],
      "type": "VEC3"
    },
    {
      "bufferView": 3,
      "componentType": 5126,
      "count": 260,
      "max": [
        0.8942519426345825,
        0.9998801350593567,
        0.46721842885017395,
        1.0
      ],
      "min": [
        -0.9550848603248596,
        -0.7626504898071289,
        -0.3631349205970764,
        1.0
      ],
      "type": "VEC4"
    },
    {
      "bufferView": 1,
      "componentType": 5126,
      "count": 260,
      "max": [
        0.7012677788734436,
        1.0
      ],
      "min": [
        0.0,
        0.0
      ],
      "type": "VEC2"
    },
    {
      "bufferView": 0,
      "componentType": 5125,
      "count": 1044,
      "type": "SCALAR"
    },
    {
      "bufferView": 2,
      "byteOffset": 6240,
      "componentType": 5126,
      "count": 3809,
      "max": [
        1.0499032735824585,
        1.156789779663086,
        7.434729099273682
      ],
      "min": [
        -1.0902128219604492,
        -1.15475332736969,
        -1.2016191482543945
      ],
      "type": "VEC3"
    },
    {
      "bufferView": 2,
      "byteOffset": 51948,
      "componentType": 5126,
      "count": 3809,
      "max": [
        0.9999129176139832,
        0.9997969269752502,
        0.9999764561653137
      ],
      "min": [
        -0.9999467730522156,
        -0.9989955425262451,
        -0.9999327659606934
      ],
      "type": "VEC3"
    },
    {
      "bufferView": 3,
      "byteOffset": 4160,
      "componentType": 5126,
      "count": 3809,
      "max": [
        0.9999451637268066,
        0.9997594952583313,
        0.9118008017539978,
        1.0
      ],
      "min": [
        -0.9996975064277649,
        -0.9996037483215332,
        -0.9969895482063293,
        -1.0
      ],
      "type": "VEC4"
    },
    {
      "bufferView": 1,
      "byteOffset": 2080,
      "componentType": 5126,
      "count": 3809,
      "max": [
        0.9999999403953552,
        0.9632115364074707
      ],
      "min": [
        0.0,
        0.0
      ],
      "type": "VEC2"
    },
    {
      "bufferView": 0,
      "byteOffset": 4176,
      "componentType": 5125,
      "count": 19908,
      "type": "SCALAR"
    }
  ],
  "asset": {
    "extras": {
      "author": "Arcaino1013 (https://sketchfab.com/aeneasreina)",
      "license": "CC-BY-4.0 (http://creativecommons.org/licenses/by/4.0/)",
      "source": "https://sketchfab.com/3d-models/basic-candle-1eb7ccbfcd0749a990003155f4fe0356",
      "title": "Basic Candle"
    },
    "generator": "Sketchfab-14.15.0",
    "version": "2.0"
  },
  "bufferViews": [
    {
      "buffer": 0,
      "byteLength": 83808,
      "name": "floatBufferViews",
      "target": 34963
    },
    {
      "buffer": 0,
      "byteLength": 32552,
      "byteOffset": 83808,
      "byteStride": 8,
      "name": "floatBufferViews",
      "target": 34962
    },
    {
      "buffer": 0,
      "byteLength": 97656,
      "byteOffset": 116360,
      "byteStride": 12,
      "name": "floatBufferViews",
      "target": 34962
    },
    {
      "buffer": 0,
      "byteLength": 65104,
      "byteOffset": 214016,
      "byteStride": 16,
      "name": "floatBufferViews",
      "target": 34962
    }
  ],
  "buffers": [
    {
      "byteLength": 279120,
      "uri": "scene.bin"
    }
  ],
  "images": [
    {
      "uri": "textures/CandleTop_baseColor.png"
    },
    {
      "uri": "textures/CandleTop_normal.png"
    },
    {
      "uri": "textures/Candle4kFaces_normal.png"
    }
  ],
  "materials": [
    {
      "doubleSided": true,
      "name": "CandleTop",
      "normalTexture": {
        "index": 1
      },
      "pbrMetallicRoughness": {
        "baseColorTexture": {
          "index": 0
        },
        "metallicFactor": 0.0,
        "roughnessFactor": 0.8211145618000169
      }
    },
    {
      "name": "Candle4kFaces",
      "normalTexture": {
        "index": 2
      },
      "pbrMetallicRoughness": {
        "baseColorFactor": [
          0.8,
          0.520808,
          0.374589,
          1.0
        ],
        "metallicFactor": 0.0
      }
    }
  ],
  "meshes": [
    {
      "name": "Cylinder.002_CandleTop_0",
      "primitives": [
        {
          "attributes": {
            "NORMAL": 1,
            "POSITION": 0,
            "TANGENT": 2,
            "TEXCOORD_0": 3
          },
          "indices": 4,
          "material": 0,
          "mode": 4
        }
      ]
    },
    {
      "name": "Candle4kFaces_Candle4kFaces_0",
      "primitives": [
        {
          "attributes": {
            "NORMAL": 6,
            "POSITION": 5,
            "TANGENT": 7,
            "TEXCOORD_0": 8
          },
          "indices": 9,
          "material": 1,
          "mode": 4
        }
      ]
    }
  ],
  "nodes": [
    {
      "children": [
        1
      ],
      "matrix": [
        1.0,
        0.0,
        0.0,
        0.0,
        0.0,
        2.220446049250313e-16,
        -1.0,
        0.0,
        0.0,
        1.0,
        2.220446049250313e-16,
        0.0,
        0.0,
        0.0,
        0.0,
        1.0
      ],
      "name": "Sketchfab_model"
    },
    {
      "children": [
        2
      ],
      "matrix": [
        0.009999999776482582,
        0.0,
        0.0,
        0.0,
        0.0,
        0.0,
        0.009999999776482582,
        0.0,
        0.0,
        -0.009999999776482582,
        0.0,
        0.0,
        0.0,
        0.0,
        0.0,
        1.0
      ],
      "name": "Candle.fbx"
    },
    {
      "children": [
        3,
        5
      ],
      "name": "RootNode"
    },
    {
      "children": [
        4
      ],
      "matrix": [
        3.1324334144592285,
        0.0,
        0.0,
        0.0,
        0.0,
        -5.103381800333717e-07,
        -3.132433414459187,
        0.0,
        0.0,
        3.132433414459187,
        -5.103381800333717e-07,
        0.0,
        0.0,
        850.7632446289063,
        0.0,
        1.0
      ],
      "name": "Cylinder.002"
    },
    {
      "mesh": 0,
      "name": "Cylinder.002_CandleTop_0"
    },
    {
      "children": [
        6
      ],
      "matrix": [
        100.0,
        0.0,
        0.0,
        0.0,
        0.0,
        -1.629206793918314e-05,
        -99.99999999999868,
        0.0,
        0.0,
        99.99999999999868,
        -1.629206793918314e-05,
        0.0,
        0.0,
        110.50077819824219,
        0.0,
        1.0
      ],
      "name": "Candle4kFaces"
    },
    {
      "mesh": 1,
      "name": "Candle4kFaces_Candle4kFaces_0"
    }
  ],
  "samplers": [
    {
      "magFilter": 9729,
      "minFilter": 9987,
      "wrapS": 10497,
      "wrapT": 10497
    }
  ],
  "scene": 0,
  "scenes": [
    {
      "name": "Sketchfab_Scene",
      "nodes": [
        0
      ]
    }
  ],
  "textures": [
    {
      "sampler": 0,
      "source": 0
    },
    {
      "sampler": 0,
      "source": 1
    },
    {
      "sampler": 0,
      "source": 2
    }
  ]
}
